<svg xmlns="http://www.w3.org/2000/svg" xmlns:xlink="http://www.w3.org/1999/xlink" viewBox="0 0 481.98828 191"><defs><style>.cls-1{fill:none;}.cls-2{fill:#9e9e9e;}.cls-3{fill:#f5f5f5;}.cls-4{clip-path:url(#clip-path);}.cls-5{fill:#18ffff;}.cls-6{fill:#212121;}</style><clipPath id="clip-path"><circle class="cls-1" cx="95.5" cy="95.5" r="95.5"/></clipPath></defs><title>Asset 1</title><g id="Layer_2" data-name="Layer 2"><g id="Layer_1-2" data-name="Layer 1"><g id="logo"><path class="cls-2" d="M407.47656,152.875v2.55859H411.5v1.39648h-4.02344v5.74219a2.81708,2.81708,0,0,0,.15625,1.01563,1.6,1.6,0,0,0,.42969.63965,1.56987,1.56987,0,0,0,.62988.33691,2.88531,2.88531,0,0,0,.75684.09766,5.649,5.649,0,0,0,.60547-.03418q.312-.03369.61035-.083c.19922-.0332.38477-.06641.55664-.10254s.31445-.06738.4248-.09277l.25391,1.2793a2.48906,2.48906,0,0,1-.54687.23926,6.15857,6.15857,0,0,1-.70312.17578,8.09251,8.09251,0,0,1-.80566.1123c-.2832.02539-.56445.03906-.84473.03906a4.17759,4.17759,0,0,1-1.31348-.2002,2.72964,2.72964,0,0,1-1.05957-.63477,2.99448,2.99448,0,0,1-.708-1.123,4.76327,4.76327,0,0,1-.25879-1.665v-5.74219h-2.77344v-1.39648h2.77344V152.875Z"/><path class="cls-2" d="M421.86914,166.19531a5.36255,5.36255,0,0,1-2.0459-.38086,4.6454,4.6454,0,0,1-1.59668-1.06445,4.86281,4.86281,0,0,1-1.03516-1.62109,5.50064,5.50064,0,0,1-.37109-2.041v-.41016a6.04352,6.04352,0,0,1,.41016-2.29,5.2593,5.2593,0,0,1,1.08887-1.709,4.75227,4.75227,0,0,1,1.543-1.06934,4.44005,4.44005,0,0,1,1.77246-.37109,4.71093,4.71093,0,0,1,1.99707.39551,3.92136,3.92136,0,0,1,1.4209,1.09375,4.66969,4.66969,0,0,1,.84473,1.64551,7.24028,7.24028,0,0,1,.27832,2.05078v.81055H418.627a4.15021,4.15021,0,0,0,.27832,1.35742,3.50907,3.50907,0,0,0,.68359,1.1084,3.16045,3.16045,0,0,0,1.04.74707,3.22247,3.22247,0,0,0,1.33789.27344,3.68114,3.68114,0,0,0,1.71875-.39062,3.72382,3.72382,0,0,0,1.25-1.03516l1.10352.85938a4.171,4.171,0,0,1-.65918.7666,4.58623,4.58623,0,0,1-.91309.64941,5.11084,5.11084,0,0,1-1.17187.4541A5.61672,5.61672,0,0,1,421.86914,166.19531Zm-.23437-9.47266a2.676,2.676,0,0,0-1.91406.78613,3.3282,3.3282,0,0,0-.65918.94727,4.49847,4.49847,0,0,0-.376,1.29395h5.68359v-.13672a4.02549,4.02549,0,0,0-.2002-1.04492,2.90426,2.90426,0,0,0-.50293-.92773,2.53137,2.53137,0,0,0-.835-.66406A2.61733,2.61733,0,0,0,421.63477,156.72266Z"/><path class="cls-2" d="M438.22461,163.19727a1.19654,1.19654,0,0,0-.55664-1.05469,3.41142,3.41142,0,0,0-.80078-.39551,8.60529,8.60529,0,0,0-1.24023-.32715,12.40356,12.40356,0,0,1-1.65527-.44922,5.44246,5.44246,0,0,1-1.2793-.62988,2.75461,2.75461,0,0,1-.8252-.85937,2.20652,2.20652,0,0,1-.293-1.14746,2.49807,2.49807,0,0,1,.30273-1.20605,3.07677,3.07677,0,0,1,.84961-.98145,4.26688,4.26688,0,0,1,1.30371-.66406,5.42131,5.42131,0,0,1,1.665-.24414,5.65032,5.65032,0,0,1,1.75781.25391,4.05389,4.05389,0,0,1,1.32813.70313,3.17124,3.17124,0,0,1,.84473,1.0498,2.87472,2.87472,0,0,1,.29785,1.29395h-1.80664a1.395,1.395,0,0,0-.17578-.66895,1.93205,1.93205,0,0,0-.48828-.58105,2.47864,2.47864,0,0,0-.75684-.41016,3.02022,3.02022,0,0,0-1.001-.15625,3.6451,3.6451,0,0,0-1.01074.127,2.25886,2.25886,0,0,0-.72266.3418,1.44294,1.44294,0,0,0-.43457.498,1.30715,1.30715,0,0,0-.0293,1.14258,1.14718,1.14718,0,0,0,.40527.43945,3.03068,3.03068,0,0,0,.77148.35156,11.16844,11.16844,0,0,0,1.22559.30273,14.31053,14.31053,0,0,1,1.748.47363,5.11494,5.11494,0,0,1,1.29883.64453,2.69128,2.69128,0,0,1,.80566.874,2.32438,2.32438,0,0,1,.27832,1.15234,2.60516,2.60516,0,0,1-.31738,1.2793,2.99011,2.99011,0,0,1-.88379.98633,4.30866,4.30866,0,0,1-1.35742.63477,6.2857,6.2857,0,0,1-1.72852.22461,5.876,5.876,0,0,1-1.91406-.28809,4.59536,4.59536,0,0,1-1.4209-.76172,3.28019,3.28019,0,0,1-.88867-1.09863,2.90465,2.90465,0,0,1-.30762-1.29883h1.80664a1.87027,1.87027,0,0,0,.29785.9375,2.08147,2.08147,0,0,0,.64453.61523,2.66886,2.66886,0,0,0,.85449.332,4.58788,4.58788,0,0,0,.92773.09766,3.36271,3.36271,0,0,0,1.80664-.41992A1.29305,1.29305,0,0,0,438.22461,163.19727Z"/><path class="cls-2" d="M449.48242,152.875v2.55859h4.02344v1.39648h-4.02344v5.74219a2.81708,2.81708,0,0,0,.15625,1.01563,1.6,1.6,0,0,0,.42969.63965,1.57632,1.57632,0,0,0,.62988.33691,2.87992,2.87992,0,0,0,.75684.09766,5.649,5.649,0,0,0,.60547-.03418c.208-.02246.41211-.0498.61035-.083s.38379-.06641.55664-.10254.31445-.06738.4248-.09277l.25391,1.2793a2.48906,2.48906,0,0,1-.54687.23926,6.15858,6.15858,0,0,1-.70312.17578,8.09251,8.09251,0,0,1-.80566.1123c-.2832.02539-.56445.03906-.84473.03906a4.182,4.182,0,0,1-1.31348-.2002,2.72257,2.72257,0,0,1-1.05957-.63477,3.00662,3.00662,0,0,1-.708-1.123,4.74072,4.74072,0,0,1-.25879-1.665v-5.74219h-2.77344v-1.39648H447.666V152.875Z"/><path class="cls-2" d="M463.875,166.19531a5.36255,5.36255,0,0,1-2.0459-.38086,4.6454,4.6454,0,0,1-1.59668-1.06445,4.86281,4.86281,0,0,1-1.03516-1.62109,5.50064,5.50064,0,0,1-.37109-2.041v-.41016a6.04352,6.04352,0,0,1,.41016-2.29,5.2593,5.2593,0,0,1,1.08887-1.709,4.75227,4.75227,0,0,1,1.543-1.06934,4.44005,4.44005,0,0,1,1.77246-.37109,4.71093,4.71093,0,0,1,1.99707.39551,3.92136,3.92136,0,0,1,1.4209,1.09375,4.6697,4.6697,0,0,1,.84473,1.64551,7.24028,7.24028,0,0,1,.27832,2.05078v.81055h-7.54883a4.1502,4.1502,0,0,0,.27832,1.35742,3.50906,3.50906,0,0,0,.68359,1.1084,3.16045,3.16045,0,0,0,1.04.74707,3.22247,3.22247,0,0,0,1.33789.27344,3.68114,3.68114,0,0,0,1.71875-.39062,3.72382,3.72382,0,0,0,1.25-1.03516l1.10352.85938a4.171,4.171,0,0,1-.65918.7666,4.58622,4.58622,0,0,1-.91309.64941,5.11084,5.11084,0,0,1-1.17187.4541A5.61672,5.61672,0,0,1,463.875,166.19531Zm-.23437-9.47266a2.676,2.676,0,0,0-1.91406.78613,3.3282,3.3282,0,0,0-.65918.94727,4.49848,4.49848,0,0,0-.376,1.29395H466.375v-.13672a4.02549,4.02549,0,0,0-.2002-1.04492,2.90426,2.90426,0,0,0-.50293-.92773,2.53137,2.53137,0,0,0-.835-.66406A2.61733,2.61733,0,0,0,463.64063,156.72266Z"/><path class="cls-2" d="M480.13281,155.23828q.25342,0,.52734.01465c.18262.00977.35645.02637.52246.04883s.31934.0498.459.083a2.17506,2.17506,0,0,1,.34668.10742l-.24414,1.76758a9.73071,9.73071,0,0,0-1.001-.1709,8.72394,8.72394,0,0,0-.99121-.05371,3.39021,3.39021,0,0,0-2.05566.57617,3.3275,3.3275,0,0,0-1.15723,1.61133V166h-1.81641V155.43359h1.71875l.08789,1.67969a4.83955,4.83955,0,0,1,1.54785-1.37207A4.15726,4.15726,0,0,1,480.13281,155.23828Z"/><path class="cls-3" d="M106.75342,136v-3.999l5.17334-.88867V94.7085l-5.17334-.88867V89.78906h35.48291v11.1084H136.873l-.50781-6.189H118.17969v14.94873h17.67773v4.91895H118.17969V131.1123h18.56641l.50781-6.18848h5.332V136Z"/><path class="cls-3" d="M147.918,132.001l3.68164-.72949,10.124-12.63281L151.917,106.41992l-3.68164-.73047v-4.03027h13.457v4.03027l-3.11035.38086,6.41113,8.252,6.44336-8.2832-3.0791-.34961v-4.03027h13.55176v4.03027l-3.68164.73047-9.80664,12.21875,10.09277,12.63281,3.71387.72949V136h-13.457v-3.999l3.04688-.34863-6.72852-8.63281-6.72852,8.63281,3.07813.34863V136H147.918Z"/><path class="cls-3" d="M185.84473,145.17188l5.17383-.88867V106.57813l-5.17383-.88867v-4.03027h10.53711l.57227,4.18945a11.57277,11.57277,0,0,1,4.17285-3.58691,12.52545,12.52545,0,0,1,5.69727-1.2373,11.41261,11.41261,0,0,1,9.918,5.0625q3.53906,5.0625,3.53906,13.37793v.666q0,7.42676-3.55469,11.98145a11.75237,11.75237,0,0,1-9.80762,4.55371,13.6184,13.6184,0,0,1-5.56934-1.0625,10.78318,10.78318,0,0,1-4.0791-3.1582V144.2832l5.17383.88867v4.03125H185.84473Zm28.15234-25.707a18.23166,18.23166,0,0,0-2.28516-9.61719,7.4564,7.4564,0,0,0-6.792-3.74512,8.36776,8.36776,0,0,0-4.57031,1.20605,9.085,9.085,0,0,0-3.0791,3.30078v16.72656a8.17347,8.17347,0,0,0,7.71289,4.44336,7.70957,7.70957,0,0,0,6.72852-3.23828,14.26644,14.26644,0,0,0,2.28516-8.41016Z"/><path class="cls-3" d="M225.96191,105.68945v-4.03027h10.75977l.60352,4.9834a12.00434,12.00434,0,0,1,3.60156-4.127,8.37457,8.37457,0,0,1,4.9043-1.49121,10.63168,10.63168,0,0,1,1.50684.11133,8.42667,8.42667,0,0,1,1.19043.2373l-.8252,5.80859-3.55469-.19043a7.15307,7.15307,0,0,0-4.15723,1.1582,7.49923,7.49923,0,0,0-2.60352,3.25293v19.71l5.17383.88867V136H225.96191v-3.999l5.17383-.88867V106.57813Z"/><path class="cls-3" d="M267.9209,136.666q-7.17334,0-11.41016-4.77637-4.23779-4.77686-4.2373-12.39355v-1.39648a17.60593,17.60593,0,0,1,4.36426-12.20312,13.44118,13.44118,0,0,1,10.33008-4.87207q6.91992,0,10.49023,4.18945,3.56982,4.18945,3.57031,11.17188v3.90332H258.748l-.09473.15918a13.56338,13.56338,0,0,0,2.50684,8.14063,7.98655,7.98655,0,0,0,6.76074,3.19043,15.71608,15.71608,0,0,0,5.56934-.90527,12.77443,12.77443,0,0,0,4.1416-2.49121l2.44434,4.0625a14.97356,14.97356,0,0,1-4.87207,2.999A19.46967,19.46967,0,0,1,267.9209,136.666Zm-.95312-30.72266a6.77539,6.77539,0,0,0-5.36328,2.65039,12.55145,12.55145,0,0,0-2.72949,6.64941l.06348.15918h15.83789v-.82617a9.58122,9.58122,0,0,0-1.96875-6.15625A7.00979,7.00979,0,0,0,266.96777,105.94336Z"/><path class="cls-3" d="M313.46484,112.4502h-4.69727l-1.01562-4.126a8.464,8.464,0,0,0-2.87207-1.72949,11.07859,11.07859,0,0,0-3.91895-.65137,7.20418,7.20418,0,0,0-4.95117,1.46094,4.573,4.573,0,0,0-1.61914,3.52246,3.93176,3.93176,0,0,0,1.42773,3.20605q1.42969,1.1748,5.80859,2.09375,6.50537,1.39746,9.67969,3.793a7.64342,7.64342,0,0,1,3.17383,6.42773,8.87083,8.87083,0,0,1-3.69727,7.39453,15.49262,15.49262,0,0,1-9.66406,2.82422,25.08956,25.08956,0,0,1-7.01367-.9043,18.64882,18.64882,0,0,1-5.55469-2.61816l-.03125-7.83887h4.69727l1.17383,4.60156a6.50994,6.50994,0,0,0,2.93555,1.42773,16.20792,16.20792,0,0,0,3.793.44531,8.83888,8.83888,0,0,0,5.2207-1.34961,4.15681,4.15681,0,0,0,1.88867-3.53906,4.25582,4.25582,0,0,0-1.57129-3.39551q-1.57031-1.333-5.9502-2.31738-6.25342-1.36377-9.42676-3.71289a7.48637,7.48637,0,0,1-3.17383-6.34766,8.96581,8.96581,0,0,1,3.57031-7.14062,14.09108,14.09108,0,0,1,9.28418-2.95215,22.55563,22.55563,0,0,1,7.01367,1.01563,14.60742,14.60742,0,0,1,5.17383,2.8252Z"/><path class="cls-3" d="M346.59961,112.4502h-4.69727l-1.01562-4.126a8.464,8.464,0,0,0-2.87207-1.72949,11.07859,11.07859,0,0,0-3.91895-.65137,7.20418,7.20418,0,0,0-4.95117,1.46094,4.573,4.573,0,0,0-1.61914,3.52246,3.93176,3.93176,0,0,0,1.42773,3.20605q1.42969,1.1748,5.80859,2.09375,6.50537,1.39746,9.67969,3.793a7.64342,7.64342,0,0,1,3.17383,6.42773,8.87083,8.87083,0,0,1-3.69727,7.39453,15.49262,15.49262,0,0,1-9.66406,2.82422,25.08956,25.08956,0,0,1-7.01367-.9043,18.64881,18.64881,0,0,1-5.55469-2.61816l-.03125-7.83887h4.69727l1.17383,4.60156a6.50994,6.50994,0,0,0,2.93555,1.42773,16.20792,16.20792,0,0,0,3.793.44531,8.83888,8.83888,0,0,0,5.2207-1.34961,4.15681,4.15681,0,0,0,1.88867-3.53906,4.25582,4.25582,0,0,0-1.57129-3.39551q-1.57031-1.333-5.9502-2.31738-6.25342-1.36377-9.42676-3.71289a7.48637,7.48637,0,0,1-3.17383-6.34766,8.96581,8.96581,0,0,1,3.57031-7.14062,14.09108,14.09108,0,0,1,9.28418-2.95215,22.55563,22.55563,0,0,1,7.01367,1.01563,14.60742,14.60742,0,0,1,5.17383,2.8252Z"/><path class="cls-3" d="M353.45508,132.001l5.17383-.88867V106.57813l-5.17383-.88867v-4.03027h11.42578V131.1123l5.17383.88867V136H353.45508Zm11.42578-39.1333h-6.252V86.48828h6.252Z"/><path class="cls-3" d="M374.84668,118.51172q0-7.61719,4.126-12.55176a15.25546,15.25546,0,0,1,22.45508-.0166q4.14111,4.92041,4.1416,12.56836v.69922q0,7.68018-4.126,12.56836a13.89625,13.89625,0,0,1-11.20312,4.88672q-7.14258,0-11.26758-4.90332-4.12646-4.90283-4.126-12.55176Zm6.25293.69922a16.289,16.289,0,0,0,2.30078,9.01367,8.28093,8.28093,0,0,0,13.59961,0,16.20983,16.20983,0,0,0,2.31641-9.01367v-.69922A16.24548,16.24548,0,0,0,397,109.53027a7.60965,7.60965,0,0,0-6.82422-3.58691,7.53245,7.53245,0,0,0-6.791,3.58691,16.41369,16.41369,0,0,0-2.28516,8.98145Z"/><path class="cls-3" d="M410.36133,132.001l5.17383-.88867V106.57813l-5.17383-.88867v-4.03027h10.75977l.44336,5.11035a12.46217,12.46217,0,0,1,4.30078-4.2373,11.47582,11.47582,0,0,1,5.8877-1.50781q5.55322,0,8.60059,3.25293,3.04688,3.25488,3.04688,10.04492v16.79l5.17383.88867V136H431.97461v-3.999l5.17383-.88867V114.44922q0-4.53809-1.793-6.44238-1.79443-1.9043-5.47461-1.9043a8.81729,8.81729,0,0,0-4.77734,1.30176,9.50319,9.50319,0,0,0-3.31641,3.55469V131.1123l5.17383.88867V136H410.36133Z"/><path class="cls-3" d="M479.39258,112.4502h-4.69727l-1.01562-4.126a8.464,8.464,0,0,0-2.87207-1.72949,11.07859,11.07859,0,0,0-3.91895-.65137,7.20418,7.20418,0,0,0-4.95117,1.46094,4.573,4.573,0,0,0-1.61914,3.52246,3.93176,3.93176,0,0,0,1.42773,3.20605q1.42969,1.1748,5.80859,2.09375,6.50537,1.39746,9.67969,3.793a7.64342,7.64342,0,0,1,3.17383,6.42773,8.87083,8.87083,0,0,1-3.69727,7.39453,15.49262,15.49262,0,0,1-9.66406,2.82422,25.08956,25.08956,0,0,1-7.01367-.9043,18.64882,18.64882,0,0,1-5.55469-2.61816l-.03125-7.83887h4.69727l1.17383,4.60156a6.50994,6.50994,0,0,0,2.93555,1.42773,16.20792,16.20792,0,0,0,3.793.44531,8.83888,8.83888,0,0,0,5.2207-1.34961,4.15681,4.15681,0,0,0,1.88867-3.53906,4.25582,4.25582,0,0,0-1.57129-3.39551q-1.57031-1.333-5.9502-2.31738-6.25342-1.36377-9.42676-3.71289a7.48637,7.48637,0,0,1-3.17383-6.34766,8.96581,8.96581,0,0,1,3.57031-7.14062,14.09108,14.09108,0,0,1,9.28418-2.95215,22.55563,22.55563,0,0,1,7.01367,1.01563,14.60742,14.60742,0,0,1,5.17383,2.8252Z"/><path class="cls-3" d="M87.03418,34.8208q7.55273,0,11.585,3.34814,4.02979,3.34937,4.03027,9.50586a9.95679,9.95679,0,0,1-1.87207,5.9668,12.41778,12.41778,0,0,1-5.36426,4.09424,9.443,9.443,0,0,1,5.44336,4.03076,13.23648,13.23648,0,0,1,1.666,6.88721v3.71338a6.96819,6.96819,0,0,0,.54,3.14209,2.27659,2.27659,0,0,0,1.77734,1.20605l1.52344.19043V81H102.998q-3.64893,0-5.18848-2.53906a11.66176,11.66176,0,0,1-1.54-6.15723V68.71729a8.395,8.395,0,0,0-2.18945-6.062A7.75207,7.75207,0,0,0,88.209,60.37012H78.17969V76.1123l5.17285.88867V81H66.75342V77.001l5.17334-.88867V39.7085l-5.17334-.88867v-3.999H87.03418ZM78.17969,55.45068h8.21973q5.23682,0,7.61719-1.99951a7.19544,7.19544,0,0,0,2.37988-5.83984A7.50733,7.50733,0,0,0,94.11133,41.835q-2.28516-2.12622-7.07715-2.12646H78.17969Z"/><path class="cls-3" d="M126.99316,81.6665q-7.17334,0-11.41016-4.77686-4.23779-4.77612-4.2373-12.39355V63.09961A17.60593,17.60593,0,0,1,115.71,50.89648,13.44118,13.44118,0,0,1,126.04,46.02441q6.91992,0,10.49023,4.18945,3.56982,4.18945,3.57031,11.17188v3.90381H117.82031l-.09473.15869a13.56337,13.56337,0,0,0,2.50684,8.14063,7.98617,7.98617,0,0,0,6.76074,3.18994,15.71644,15.71644,0,0,0,5.56934-.90479,12.783,12.783,0,0,0,4.1416-2.49121l2.44434,4.0625a14.99014,14.99014,0,0,1-4.87207,2.999A19.46922,19.46922,0,0,1,126.99316,81.6665ZM126.04,50.94385a6.77343,6.77343,0,0,0-5.36328,2.6499,12.54982,12.54982,0,0,0-2.72949,6.64941l.06348.15869h15.83789v-.8252a9.58212,9.58212,0,0,0-1.96875-6.15723A7.0092,7.0092,0,0,0,126.04,50.94385Z"/><path class="cls-3" d="M146.29,64.46436q0-8.28369,3.61816-13.36182a11.60258,11.60258,0,0,1,9.998-5.07812,12.15663,12.15663,0,0,1,5.68066,1.26953,11.164,11.164,0,0,1,4.09473,3.68164l.57031-4.31641h5.26953V80.55566q0,6.665-3.71387,10.48926-3.71338,3.82471-10.56934,3.82471a23.43219,23.43219,0,0,1-5.36328-.68213,20.903,20.903,0,0,1-5.07812-1.85693l1.61914-4.856a20.25486,20.25486,0,0,0,8.75977,2.12646q4.18945,0,6.14063-2.34863,1.95264-2.34888,1.95215-6.69678v-3.269a11.07311,11.07311,0,0,1-4.03027,3.269,12.49121,12.49121,0,0,1-5.39648,1.11084,11.978,11.978,0,0,1-9.93359-4.57031Q146.29,72.52588,146.29,65.13086Zm6.25293.6665a14.2697,14.2697,0,0,0,2.18945,8.31543,7.57512,7.57512,0,0,0,6.665,3.14209,8.26293,8.26293,0,0,0,4.72949-1.28564,9.74881,9.74881,0,0,0,3.1416-3.63379V55.86328a9.715,9.715,0,0,0-3.1416-3.47559,8.249,8.249,0,0,0-4.666-1.28516,7.28519,7.28519,0,0,0-6.69727,3.74512,18.65294,18.65294,0,0,0-2.2207,9.6167Z"/><path class="cls-3" d="M207.6084,75.92187a11.59547,11.59547,0,0,1-4.17383,4.25293,11.46655,11.46655,0,0,1-5.8877,1.4917,10.99046,10.99046,0,0,1-8.72754-3.58643q-3.14355-3.58594-3.14258-11.17187V51.57861l-3.93555-.88867V46.65918h10.1875v20.3125q0,5.491,1.61914,7.55371a6.0191,6.0191,0,0,0,5.04688,2.063,10.27715,10.27715,0,0,0,5.50586-1.34912,8.44222,8.44222,0,0,0,3.28516-3.82422V51.57861l-4.60156-.88867V46.65918H213.6377V76.1123l3.93555.88867V81h-9.55273Z"/><path class="cls-3" d="M221.668,35.519V31.48828h11.42578v44.624l5.17285.88867V81H221.668V77.001l5.17285-.88867V36.40771Z"/><path class="cls-3" d="M265.4043,81q-.28711-1.396-.44531-2.50732-.1582-1.11035-.22168-2.22168a15.12506,15.12506,0,0,1-4.52246,3.856,11.556,11.556,0,0,1-5.793,1.53955q-5.36279,0-8.15625-2.61865a9.619,9.619,0,0,1-2.793-7.37891,8.5483,8.5483,0,0,1,3.95117-7.53809q3.95215-2.64917,10.83887-2.6499h6.44238v-3.999a6.1905,6.1905,0,0,0-1.9043-4.77686,7.511,7.511,0,0,0-5.2998-1.76123,12.988,12.988,0,0,0-4.1416.603,7.77439,7.77439,0,0,0-2.9043,1.65039l-.666,3.61816h-4.82422v-6.665a18.54889,18.54889,0,0,1,5.68066-2.999,22.46427,22.46427,0,0,1,7.23633-1.127,14.388,14.388,0,0,1,9.458,2.9834q3.61816,2.98389,3.61816,8.5376V74.08105q0,.6665.01563,1.30127.01611.635.0791,1.26953l2.53906.34912V81Zm-10.06152-4.57031a11.11,11.11,0,0,0,5.68066-1.4917,9.24336,9.24336,0,0,0,3.68164-3.58643V65.70215H258.041a9.512,9.512,0,0,0-6.07812,1.77734,5.34349,5.34349,0,0,0-2.23828,4.31641,4.2737,4.2737,0,0,0,1.39648,3.44336A6.37882,6.37882,0,0,0,255.34277,76.42969Z"/><path class="cls-3" d="M278.79688,50.68994V46.65918h10.75977l.60352,4.98291a11.99623,11.99623,0,0,1,3.60156-4.126,8.375,8.375,0,0,1,4.9043-1.4917,10.63169,10.63169,0,0,1,1.50684.11133,8.34486,8.34486,0,0,1,1.19043.23779l-.8252,5.80811-3.55469-.19043a7.15668,7.15668,0,0,0-4.15723,1.1582,7.50351,7.50351,0,0,0-2.60352,3.25342V76.1123l5.17383.88867V81H278.79688V77.001l5.17383-.88867V51.57861Z"/><g class="cls-4"><rect class="cls-5" width="191" height="191"/><path class="cls-6" d="M136.11133,115.6875H120.46484v13.20313h14.916l.41309-5.52246h7.0459V136h-36.5625v-5.55469l4.91943-.95117v-33.167l-4.91943-.95215V89.78906h36.499v12.66406H135.667l-.41309-5.52344H120.46484v11.61719h15.64648Z"/><path class="cls-6" d="M147.0293,130.44531l3.20508-.50781,9.332-11.29883-9.01367-10.85352-3.20605-.54v-5.58594h15.45605v5.36426l-3.1416.38086,5.20508,6.60156,5.11035-6.60156-3.20605-.38086v-5.36426H182.291v5.58594l-3.11133.54-8.82227,10.85352,9.29883,11.29883,3.2373.50781V136h-15.71v-5.332l3.1416-.38086-5.332-6.91895-5.42676,6.9502,2.76074.34961V136H147.0293Z"/><path class="cls-6" d="M87.03418,34.78906q7.87061,0,12.34668,3.60254a12.07221,12.07221,0,0,1,4.47461,9.94971,10.0139,10.0139,0,0,1-1.873,6.062A13.08432,13.08432,0,0,1,96.49219,58.561a9.9741,9.9741,0,0,1,5.8877,4.01514,12.69893,12.69893,0,0,1,1.793,6.96631v2.34863a4.012,4.012,0,0,0,.60254,2.36475,2.69009,2.69009,0,0,0,2,.99951l1.14258.15869V81h-4.793q-4.53809,0-6.37891-2.44385a10.21415,10.21415,0,0,1-1.84082-6.31592V69.606a7.44063,7.44063,0,0,0-1.793-5.28467,6.88216,6.88216,0,0,0-5.0625-2.01514h-7.585v12.1875l4.95117.95215V81H66.27734V75.4458l4.91943-.95215V41.32715L66.27734,40.375V34.78906H87.03418ZM80.46484,55.165H86.875q3.873,0,5.80859-1.65039a5.91118,5.91118,0,0,0,1.93555-4.76074,6.58867,6.58867,0,0,0-1.91992-4.9668,7.84228,7.84228,0,0,0-5.665-1.85693H80.46484Z"/><path class="cls-6" d="M127.627,81.6665q-7.42676,0-11.86914-4.76074a17.02,17.02,0,0,1-4.44336-12.09229V63.54395q0-7.64868,4.20508-12.6001a13.95953,13.95953,0,0,1,11.2832-4.91943q6.94922,0,10.791,4.18945,3.83936,4.18945,3.83984,11.33057v5.04639H120.93066l-.06348.19043a8.96009,8.96009,0,0,0,2.26953,5.58594,7.07223,7.07223,0,0,0,5.47461,2.18994,17.84432,17.84432,0,0,0,5.10938-.61865,23.49247,23.49247,0,0,0,4.44336-1.95215l2.50781,5.71289a18.23846,18.23846,0,0,1-5.50684,2.82471A23.43756,23.43756,0,0,1,127.627,81.6665Zm-.82422-28.501a4.82417,4.82417,0,0,0-4.0625,1.96777,10.24751,10.24751,0,0,0-1.8418,5.17334l.0957.15869h11.3623v-.8252a7.43287,7.43287,0,0,0-1.38086-4.71338A4.976,4.976,0,0,0,126.80273,53.16553Z"/><path class="cls-6" d="M146.38477,64.11523q0-8.12476,3.53906-13.10791a11.47018,11.47018,0,0,1,9.918-4.98291,9.84667,9.84667,0,0,1,5.07813,1.28516,11.34153,11.34153,0,0,1,3.74609,3.666l.666-4.31641h8.06152v33.3252q0,6.79175-4.26855,10.83887-4.27,4.0459-11.72754,4.04639a23.25046,23.25046,0,0,1-5.52246-.71436,25.60436,25.60436,0,0,1-5.39551-1.95166l1.71387-6.50635a29.34328,29.34328,0,0,0,4.44336,1.50781,19.33414,19.33414,0,0,0,4.69727.55518,6.16915,6.16915,0,0,0,5.07813-2.063,8.85288,8.85288,0,0,0,1.68164-5.74463V77.69922a10.36173,10.36173,0,0,1-3.58594,2.95166,10.57664,10.57664,0,0,1-4.72852,1.01563,11.68273,11.68273,0,0,1-9.85547-4.6499q-3.53906-4.64868-3.53906-12.23486Zm9.26758.6665a13.98512,13.98512,0,0,0,1.52344,7.09326,5.30277,5.30277,0,0,0,4.95117,2.58691,7.64613,7.64613,0,0,0,3.60254-.77734,5.93322,5.93322,0,0,0,2.36426-2.26953V56.498a6.38676,6.38676,0,0,0-2.36426-2.41211,6.92767,6.92767,0,0,0-3.53809-.85693,5.23176,5.23176,0,0,0-4.96777,3.01514,17.04534,17.04534,0,0,0-1.57129,7.87109Z"/></g></g></g></g></svg>